HIERARCHY
ROOT Hips
{
	OFFSET 0.00000 0.00000 0.00000
	CHANNELS 6 Xposition Yposition Zposition Zrotation Yrotation Xrotation 
	JOINT LHipJoint
	{
		OFFSET 0 0 0
		CHANNELS 3 Zrotation Yrotation Xrotation
		JOINT LeftUpLeg
		{
			OFFSET 1.36337 -1.57426 1.11036
			CHANNELS 3 Zrotation Yrotation Xrotation
			JOINT LeftLeg
			{
				OFFSET 2.38468 -6.55187 0.00000
				CHANNELS 3 Zrotation Yrotation Xrotation
				JOINT LeftFoot
				{
					OFFSET 2.37166 -6.51609 0.00000
					CHANNELS 3 Zrotation Yrotation Xrotation
					JOINT LeftToeBase
					{
						OFFSET 0.29078 -0.79891 2.01393
						CHANNELS 3 Zrotation Yrotation Xrotation
						End Site
						{
							OFFSET 0.00000 -0.00000 1.07924
						}
					}
				}
			}
		}
	}
	JOINT RHipJoint
	{
		OFFSET 0 0 0
		CHANNELS 3 Zrotation Yrotation Xrotation
		JOINT RightUpLeg
		{
			OFFSET -1.36349 -1.57426 1.11036
			CHANNELS 3 Zrotation Yrotation Xrotation
			JOINT RightLeg
			{
				OFFSET -2.29562 -6.30717 0.00000
				CHANNELS 3 Zrotation Yrotation Xrotation
				JOINT RightFoot
				{
					OFFSET -2.40985 -6.62100 0.00000
					CHANNELS 3 Zrotation Yrotation Xrotation
					JOINT RightToeBase
					{
						OFFSET -0.23197 -0.63733 1.92232
						CHANNELS 3 Zrotation Yrotation Xrotation
						End Site
						{
							OFFSET -0.00000 -0.00000 1.01562
						}
					}
				}
			}
		}
	}
	JOINT LowerBack
	{
		OFFSET 0 0 0
		CHANNELS 3 Zrotation Yrotation Xrotation
		JOINT Spine
		{
			OFFSET -0.08565 2.03602 -0.24562
			CHANNELS 3 Zrotation Yrotation Xrotation
			JOINT Spine1
			{
				OFFSET -0.00036 2.05693 0.00216
				CHANNELS 3 Zrotation Yrotation Xrotation
				JOINT Neck
				{
					OFFSET 0 0 0
					CHANNELS 3 Zrotation Yrotation Xrotation
					JOINT Neck1
					{
						OFFSET -0.03664 1.69515 0.31789
						CHANNELS 3 Zrotation Yrotation Xrotation
						JOINT Head
						{
							OFFSET 0.00932 1.70181 -0.46013
							CHANNELS 3 Zrotation Yrotation Xrotation
							End Site
							{
								OFFSET 0.01243 1.77620 -0.19377
							}
						}
					}
				}
				JOINT LeftShoulder
				{
					OFFSET 0 0 0
					CHANNELS 3 Zrotation Yrotation Xrotation
					JOINT LeftArm
					{
						OFFSET 3.74344 0.81315 -0.36647
						CHANNELS 3 Zrotation Yrotation Xrotation
						JOINT LeftForeArm
						{
							OFFSET 4.97185 -0.00000 -0.00000
							CHANNELS 3 Zrotation Yrotation Xrotation
							JOINT LeftHand
							{
								OFFSET 3.35811 -0.00000 0.00000
								CHANNELS 3 Zrotation Yrotation Xrotation
								JOINT LeftFingerBase
								{
									OFFSET 0 0 0
									CHANNELS 3 Zrotation Yrotation Xrotation
									JOINT LeftHandIndex1
									{
										OFFSET 0.62278 -0.00000 0.00000
										CHANNELS 3 Zrotation Yrotation Xrotation
										End Site
										{
											OFFSET 0.50210 -0.00000 0.00000
										}
									}
								}
								JOINT LThumb
								{
									OFFSET 0 0 0
									CHANNELS 3 Zrotation Yrotation Xrotation
									End Site
									{
										OFFSET 0.50976 -0.00000 0.50976
									}
								}
							}
						}
					}
				}
				JOINT RightShoulder
				{
					OFFSET 0 0 0
					CHANNELS 3 Zrotation Yrotation Xrotation
					JOINT RightArm
					{
						OFFSET -3.75385 0.50666 -0.06525
						CHANNELS 3 Zrotation Yrotation Xrotation
						JOINT RightForeArm
						{
							OFFSET -4.96493 -0.00000 -0.00000
							CHANNELS 3 Zrotation Yrotation Xrotation
							JOINT RightHand
							{
								OFFSET -3.34929 -0.00000 0.00000
								CHANNELS 3 Zrotation Yrotation Xrotation
								JOINT RightFingerBase
								{
									OFFSET 0 0 0
									CHANNELS 3 Zrotation Yrotation Xrotation
									JOINT RightHandIndex1
									{
										OFFSET -0.63804 -0.00000 0.00000
										CHANNELS 3 Zrotation Yrotation Xrotation
										End Site
										{
											OFFSET -0.51441 -0.00000 0.00000
										}
									}
								}
								JOINT RThumb
								{
									OFFSET 0 0 0
									CHANNELS 3 Zrotation Yrotation Xrotation
									End Site
									{
										OFFSET -0.52226 -0.00000 0.52226
									}
								}
							}
						}
					}
				}
			}
		}
	}
}
MOTION
Frames: 12
Frame Time: .0083333
-25.5514 14.9982 -3.6247 -555.6870 54.0192 -534.1070 0.0000 0.0000 0.0000 -14.1224 1.2899 -51.3536 8.1893 16.2567 53.2416 1.0438 1.3447 -19.8323 1.7924 -8.4197 -23.9961 0.0000 0.0000 0.0000 -9.9495 11.3482 -53.5081 -9.3816 -17.0471 57.4005 -1.1083 -2.0651 -20.7313 -0.1190 2.2235 -6.1239 6.0777 -3.3541 24.0109 1.7305 -1.8949 7.0221 -1.0820 -0.5735 -5.7652 -13.4444 -12.8977 -25.7234 23.3361 -18.5030 16.0324 7.4079 -6.4199 13.5727 -0.0000 -0.0000 0.0000 -92.6908 -28.2451 108.7276 40.8402 -48.5599 -19.0667 -0.0000 0.0000 -2.3336 28.7823 -11.8210 -6.4209 -7.1250 0.0000 -0.0000 1.1056 16.5509 -0.7450 -0.0000 -0.0000 0.0000 77.5466 8.4711 54.4483 -25.7015 36.9125 -8.7078 0.0000 -0.0000 -70.9593 5.6190 -38.3996 -3.4971 7.1250 -0.0000 -0.0000 47.9430 -61.7530 -22.2711
-25.5662 14.9868 -3.7576 -555.4880 54.5275 -534.1980 0.0000 0.0000 0.0000 -13.2064 0.5484 -51.2567 7.9686 16.0961 52.4495 0.9304 0.6526 -18.4754 1.6892 -8.1862 -23.2812 0.0000 0.0000 0.0000 -10.0755 11.4980 -53.0170 -9.3210 -17.0099 57.1938 -1.1023 -1.9993 -20.6481 -0.1501 2.4966 -6.8803 6.1838 -3.3266 24.1900 1.5680 -1.8276 7.1187 -1.3358 -0.5349 -5.7526 -13.0849 -12.7787 -25.7147 23.1451 -18.4290 16.1369 7.2915 -6.3781 13.5267 0.0000 -0.0000 0.0000 -92.4121 -28.1731 108.8381 40.8177 -48.5470 -19.0498 -0.0000 0.0000 -2.2759 28.4326 -11.4000 -6.1084 -7.1250 0.0000 -0.0000 0.8982 17.0665 -0.5951 0.0000 -0.0000 0.0000 77.7095 8.4530 54.4359 -25.7280 36.9388 -8.7237 0.0000 -0.0000 -70.9767 5.2937 -38.7530 -3.3194 7.1250 -0.0000 -0.0000 48.1159 -62.0817 -22.7440
-25.5859 14.9706 -3.8993 -555.4880 55.0580 -534.3500 0.0000 0.0000 0.0000 -12.6371 -0.2254 -51.2948 7.8942 16.0409 52.1806 0.8094 1.3220 -17.5232 1.6868 -8.1808 -23.2647 0.0000 0.0000 0.0000 -10.4085 11.5817 -52.6552 -9.2498 -16.9658 56.9500 -1.1080 -1.8253 -20.6217 -0.1974 2.8609 -7.8918 5.9362 -3.3221 24.3454 1.6225 -1.8556 7.2043 -1.1257 -0.5418 -5.7298 -13.2132 -12.7593 -26.2660 22.8347 -18.3047 16.4839 7.2257 -6.3177 13.7066 0.0000 0.0000 0.0000 -92.6348 -28.2896 108.6909 40.6456 -48.4478 -18.9210 -0.0000 0.0000 -2.2376 28.2700 -11.3730 -6.0534 -7.1250 0.0000 -0.0000 0.7872 17.1156 -0.5207 0.0000 0.0000 0.0000 77.3234 8.6507 55.0133 -25.6821 36.8931 -8.6961 0.0000 -0.0000 -71.1605 4.5985 -38.3182 -2.8550 7.1250 -0.0000 -0.0000 46.8995 -61.9597 -21.8899
-25.6105 14.9550 -4.0551 -555.6350 55.7538 -534.6080 0.0000 0.0000 0.0000 -12.3173 -0.9014 -51.2246 7.9550 16.0860 52.4003 0.7924 1.1745 -17.2805 1.6555 -8.1082 -23.0432 0.0000 0.0000 0.0000 -10.9103 11.7783 -52.3350 -9.1593 -16.9091 56.6393 -1.0974 -1.6882 -20.4669 -0.2622 3.2940 -9.0984 5.6466 -3.1965 24.3597 1.5797 -1.7651 7.3154 -1.0361 -0.4919 -5.6030 -13.4417 -12.7878 -26.7397 22.7808 -18.2486 16.6735 7.2612 -6.2766 13.8779 -0.0000 -0.0000 0.0000 -92.8119 -28.4982 108.7432 40.5294 -48.3804 -18.8341 -0.0000 0.0000 -2.2797 28.6520 -11.6190 -6.2799 -7.1250 0.0000 -0.0000 1.0324 16.7943 -0.6902 -0.0000 -0.0000 0.0000 77.0682 8.8483 55.3641 -25.6088 36.8198 -8.6521 0.0000 -0.0000 -71.2599 3.6817 -37.7004 -2.2534 7.1250 -0.0000 -0.0000 45.2487 -61.7567 -20.7203
-25.6340 14.9403 -4.2193 -555.7700 56.5765 -534.9960 0.0000 0.0000 0.0000 -12.3359 -1.1137 -50.8553 8.1037 16.1950 52.9354 0.7486 2.1700 -17.2685 1.1842 -6.9060 -19.4373 0.0000 0.0000 0.0000 -11.4527 12.2048 -51.8159 -9.0510 -16.8404 56.2662 -1.0789 -1.4696 -20.2060 -0.2391 3.1471 -8.6885 5.4092 -2.9622 24.5509 1.4495 -1.5272 7.2925 -1.1076 -0.3837 -5.7078 -13.5991 -12.7969 -26.7573 22.7708 -18.2220 16.7777 7.2976 -6.2723 13.9329 0.0000 -0.0000 0.0000 -93.0165 -28.3919 109.0044 40.2317 -48.2065 -18.6118 -0.0000 0.0000 -2.2023 29.3330 -12.3354 -6.8455 -7.1250 0.0000 -0.0000 1.4395 15.9009 -0.9903 0.0000 -0.0000 0.0000 77.1260 8.6562 55.2500 -25.4608 36.6712 -8.5636 0.0000 -0.0000 -71.1694 3.3888 -37.7493 -2.0762 7.1250 -0.0000 -0.0000 45.0386 -61.8669 -20.7187
-25.6554 14.9232 -4.3935 -555.9880 57.3996 -535.3710 0.0000 0.0000 0.0000 -12.7643 -1.0264 -50.4693 8.3025 16.3373 53.6450 0.9458 0.4726 -18.5582 1.0773 -6.5974 -18.5281 0.0000 0.0000 0.0000 -12.0532 12.5484 -51.3363 -8.9450 -16.7722 55.8998 -1.0862 -1.0810 -20.1126 -0.2286 3.0775 -8.4945 5.3174 -2.7522 24.7029 1.1964 -1.3194 7.0890 -1.3865 -0.3068 -5.9992 -13.6038 -12.7604 -26.5694 22.6601 -18.1871 16.9321 7.2730 -6.2755 13.9338 -0.0000 -0.0000 0.0000 -93.1886 -28.0051 109.3080 39.7620 -47.9282 -18.2623 -0.0000 0.0000 -2.2058 29.4929 -12.5844 -7.0253 -7.1250 0.0000 -0.0000 1.5259 15.5984 -1.0598 -0.0000 -0.0000 0.0000 77.4266 8.1448 55.1524 -25.2972 36.5062 -8.4661 0.0000 -0.0000 -71.2326 3.1895 -37.7461 -1.9537 7.1250 -0.0000 -0.0000 44.8483 -61.9157 -20.6625
-25.6791 14.9066 -4.5766 -556.5170 58.0533 -535.9470 0.0000 0.0000 0.0000 -13.6008 -0.9897 -50.1367 8.5122 16.4834 54.3874 1.0111 1.9941 -19.8126 1.1175 -6.7155 -18.8753 0.0000 0.0000 0.0000 -12.8321 12.6753 -50.8490 -8.8387 -16.7028 55.5307 -1.1022 -0.8011 -20.1472 -0.3285 3.6838 -10.1888 5.0067 -2.6237 24.5950 1.0883 -1.2679 6.9957 -1.3429 -0.2935 -6.0410 -13.6491 -12.7149 -26.7448 22.2670 -18.0378 17.1906 7.1637 -6.2403 13.9783 0.0000 0.0000 0.0000 -93.6547 -27.9039 109.4459 39.1341 -47.5484 -17.7977 -0.0000 0.0000 -2.1632 29.3433 -12.4892 -6.9315 -7.1250 0.0000 -0.0000 1.4323 15.7257 -0.9908 0.0000 0.0000 0.0000 77.3621 7.9585 55.2402 -25.1563 36.3633 -8.3824 0.0000 -0.0000 -71.5997 2.8672 -37.9283 -1.7633 7.1250 -0.0000 -0.0000 44.7819 -62.1301 -20.8506
-25.7012 14.8986 -4.7558 -556.8260 58.5711 -536.4320 0.0000 0.0000 0.0000 -14.3570 -0.9454 -49.8218 8.7122 16.6189 55.0892 1.1289 2.2935 -21.0183 1.2772 -7.1622 -20.1968 0.0000 0.0000 0.0000 -13.4719 12.9962 -50.1380 -8.7153 -16.6210 55.1002 -1.1161 -0.9461 -20.3279 -0.5070 4.5642 -12.6696 4.8456 -2.5315 24.5504 1.0052 -1.2184 6.8708 -1.3553 -0.2827 -6.1518 -13.5405 -12.6417 -26.7629 21.8293 -17.9122 17.4864 7.0074 -6.2173 13.9913 0.0000 0.0000 0.0000 -93.9397 -27.7024 109.6044 38.5559 -47.1907 -17.3723 -0.0000 0.0000 -1.8657 29.0367 -12.3441 -6.7683 -7.1250 0.0000 -0.0000 1.2349 15.9293 -0.8488 0.0000 0.0000 0.0000 77.4734 7.5774 55.0077 -25.0836 36.2893 -8.3393 0.0000 -0.0000 -71.5444 2.5698 -38.7040 -1.6075 7.1250 -0.0000 -0.0000 45.5318 -62.7633 -21.9537
-25.7167 14.9005 -4.9253 -556.4600 59.0900 -536.2750 0.0000 0.0000 0.0000 -14.5540 -0.8608 -49.6387 8.9057 16.7467 55.7635 1.2224 2.4921 -21.9187 1.0975 -6.6570 -18.7031 0.0000 0.0000 0.0000 -13.7116 13.6193 -49.4154 -8.5730 -16.5250 54.6015 -1.1245 -1.4986 -20.6277 -0.6860 5.2953 -14.7528 4.8780 -2.3849 24.3550 1.0778 -1.0422 6.8341 -1.3481 -0.2036 -6.0829 -13.4155 -12.6380 -26.9324 21.5421 -17.8991 17.6815 6.8752 -6.2170 14.0412 -0.0000 0.0000 0.0000 -94.2236 -27.6921 109.9364 37.9692 -46.8196 -16.9431 -0.0000 0.0000 -1.5437 28.5564 -12.2734 -6.5993 -7.1250 0.0000 -0.0000 0.9104 16.0699 -0.6229 -0.0000 0.0000 0.0000 77.6359 7.3357 54.4717 -24.9676 36.1709 -8.2708 0.0000 -0.0000 -71.1456 1.9190 -39.0860 -1.2102 7.1250 -0.0000 -0.0000 45.4458 -63.2082 -22.3707
-25.7286 14.9065 -5.0915 -556.0500 59.5442 -536.0230 0.0000 0.0000 0.0000 -14.6952 -0.7786 -49.4437 9.0757 16.8562 56.3515 1.3710 1.6071 -22.7568 0.8752 -5.9643 -16.6810 0.0000 0.0000 0.0000 -13.9439 14.2441 -48.6763 -8.4138 -16.4153 54.0397 -1.1163 -2.0448 -20.7929 -0.7187 5.4174 -15.1030 4.8299 -2.3242 24.1319 1.3008 -0.9831 6.7808 -1.0968 -0.1805 -6.0213 -13.5264 -12.5891 -27.0626 21.3402 -17.7541 17.8635 6.8542 -6.1733 14.0886 -0.0000 -0.0000 0.0000 -94.6210 -27.7484 110.0688 37.3038 -46.3889 -16.4597 -0.0000 0.0000 -1.2687 28.0549 -12.3278 -6.4915 -7.1250 0.0000 -0.0000 0.5601 16.0712 -0.3832 -0.0000 -0.0000 0.0000 77.5888 7.3017 54.2768 -24.6620 35.8565 -8.0911 0.0000 -0.0000 -71.1533 0.2571 -38.0948 -0.1586 7.1250 -0.0000 -0.0000 42.5307 -62.9345 -20.3844
-25.7413 14.9166 -5.2563 -555.9090 59.9348 -535.9230 0.0000 0.0000 0.0000 -15.1112 -0.6408 -49.2963 9.2082 16.9398 56.8074 1.4891 1.0371 -23.4640 0.7653 -5.5866 -15.5895 0.0000 0.0000 0.0000 -14.3271 14.7458 -48.0559 -8.2605 -16.3075 53.4956 -1.0816 -2.7299 -20.8054 -0.7146 5.4022 -15.0595 4.7640 -2.2516 23.7863 1.4944 -0.9289 6.7000 -0.8676 -0.1621 -5.9286 -13.6298 -12.5920 -26.9966 21.1955 -17.7198 18.0387 6.8297 -6.1822 14.1279 -0.0000 -0.0000 0.0000 -94.8090 -27.8044 110.3432 36.8550 -46.0922 -16.1355 -0.0000 0.0000 -1.1147 27.5831 -12.3243 -6.3625 -7.1250 0.0000 -0.0000 0.2349 16.1327 -0.1604 -0.0000 -0.0000 0.0000 77.4972 7.0910 54.3042 -24.4922 35.6804 -7.9918 0.0000 -0.0000 -71.7630 -3.1433 -35.6077 1.8314 7.1250 -0.0000 -0.0000 36.1563 -61.9005 -15.9905
-25.7458 14.9319 -5.4119 -555.6320 60.2973 -535.6640 0.0000 0.0000 0.0000 -15.4774 -0.3642 -49.1755 9.2858 16.9882 57.0735 1.5843 0.5484 -24.0115 0.6847 -5.2905 -14.7390 0.0000 0.0000 0.0000 -14.5985 15.3796 -47.5123 -8.1333 -16.2164 53.0414 -1.0321 -3.7649 -20.8969 -0.7233 5.4342 -15.1513 4.7885 -2.2021 23.2722 1.7436 -0.8901 6.6431 -0.6279 -0.1490 -5.7252 -13.8635 -12.7019 -27.1039 21.0919 -17.8245 18.4151 6.8180 -6.2359 14.3363 0.0000 -0.0000 0.0000 -94.9233 -28.0265 110.8694 36.5221 -45.8689 -15.8961 -0.0000 0.0000 -1.1247 27.2590 -12.0801 -6.1543 -7.1250 0.0000 -0.0000 0.0300 16.4432 -0.0203 0.0000 -0.0000 0.0000 77.2851 6.7647 54.4848 -24.5460 35.7364 -8.0233 0.0000 -0.0000 -72.1244 -4.3330 -36.2172 2.5633 7.1250 -0.0000 -0.0000 35.6855 -62.6917 -16.4178
